<?xml version="1.0" standalone="no"?>
<!DOCTYPE svg PUBLIC "-//W3C//DTD SVG 1.1//EN" "http://www.w3.org/Graphics/SVG/1.1/DTD/svg11.dtd">
<svg width="800" height="600" version="1.1" xmlns="http://www.w3.org/2000/svg">
<rect width="800" height="600" x="0" y="0" style="fill:rgb(238,238,238);stroke:none"/>
<rect width="800" height="600" x="0" y="0" style="fill:rgb(255,255,255);stroke:none"/>
<text x="2" y="566" fill="rgb(0,0,0)" font-family="Arial" font-size="12">0</text>
<text x="2" y="473" fill="rgb(0,0,0)" font-family="Arial" font-size="12">1000</text>
<text x="2" y="379" fill="rgb(0,0,0)" font-family="Arial" font-size="12">2000</text>
<text x="2" y="285" fill="rgb(0,0,0)" font-family="Arial" font-size="12">3000</text>
<text x="2" y="192" fill="rgb(0,0,0)" font-family="Arial" font-size="12">4000</text>
<text x="2" y="98" fill="rgb(0,0,0)" font-family="Arial" font-size="12">5000</text>
<text x="306" y="30" fill="rgb(0,0,0)" font-family="Arial" font-size="12">GC distribution over all sequences</text>
<line x1="37" y1="560" x2="790" y2="560" stroke="rgb(0,0,0)" stroke-width="1"/>
<line x1="37" y1="560" x2="37" y2="40" stroke="rgb(0,0,0)" stroke-width="1"/>
<text x="334" y="595" fill="rgb(0,0,0)" font-family="Arial" font-size="12">Mean GC content (%)</text>
<text x="36" y="575" fill="rgb(0,0,0)" font-family="Arial" font-size="12">0</text>
<rect width="7" height="520" x="44" y="40" style="fill:rgb(230,230,230);stroke:none"/>
<text x="50" y="575" fill="rgb(0,0,0)" font-family="Arial" font-size="12">2</text>
<rect width="7" height="520" x="58" y="40" style="fill:rgb(230,230,230);stroke:none"/>
<text x="64" y="575" fill="rgb(0,0,0)" font-family="Arial" font-size="12">4</text>
<rect width="7" height="520" x="72" y="40" style="fill:rgb(230,230,230);stroke:none"/>
<text x="78" y="575" fill="rgb(0,0,0)" font-family="Arial" font-size="12">6</text>
<rect width="7" height="520" x="86" y="40" style="fill:rgb(230,230,230);stroke:none"/>
<text x="92" y="575" fill="rgb(0,0,0)" font-family="Arial" font-size="12">8</text>
<rect width="7" height="520" x="100" y="40" style="fill:rgb(230,230,230);stroke:none"/>
<rect width="7" height="520" x="114" y="40" style="fill:rgb(230,230,230);stroke:none"/>
<text x="109" y="575" fill="rgb(0,0,0)" font-family="Arial" font-size="12">11</text>
<rect width="7" height="520" x="128" y="40" style="fill:rgb(230,230,230);stroke:none"/>
<rect width="7" height="520" x="142" y="40" style="fill:rgb(230,230,230);stroke:none"/>
<text x="137" y="575" fill="rgb(0,0,0)" font-family="Arial" font-size="12">15</text>
<rect width="7" height="520" x="156" y="40" style="fill:rgb(230,230,230);stroke:none"/>
<rect width="7" height="520" x="170" y="40" style="fill:rgb(230,230,230);stroke:none"/>
<text x="165" y="575" fill="rgb(0,0,0)" font-family="Arial" font-size="12">19</text>
<rect width="7" height="520" x="184" y="40" style="fill:rgb(230,230,230);stroke:none"/>
<rect width="7" height="520" x="198" y="40" style="fill:rgb(230,230,230);stroke:none"/>
<text x="193" y="575" fill="rgb(0,0,0)" font-family="Arial" font-size="12">23</text>
<rect width="7" height="520" x="212" y="40" style="fill:rgb(230,230,230);stroke:none"/>
<rect width="7" height="520" x="226" y="40" style="fill:rgb(230,230,230);stroke:none"/>
<text x="221" y="575" fill="rgb(0,0,0)" font-family="Arial" font-size="12">27</text>
<rect width="7" height="520" x="240" y="40" style="fill:rgb(230,230,230);stroke:none"/>
<rect width="7" height="520" x="254" y="40" style="fill:rgb(230,230,230);stroke:none"/>
<text x="249" y="575" fill="rgb(0,0,0)" font-family="Arial" font-size="12">31</text>
<rect width="7" height="520" x="268" y="40" style="fill:rgb(230,230,230);stroke:none"/>
<rect width="7" height="520" x="282" y="40" style="fill:rgb(230,230,230);stroke:none"/>
<text x="277" y="575" fill="rgb(0,0,0)" font-family="Arial" font-size="12">35</text>
<rect width="7" height="520" x="296" y="40" style="fill:rgb(230,230,230);stroke:none"/>
<rect width="7" height="520" x="310" y="40" style="fill:rgb(230,230,230);stroke:none"/>
<text x="305" y="575" fill="rgb(0,0,0)" font-family="Arial" font-size="12">39</text>
<rect width="7" height="520" x="324" y="40" style="fill:rgb(230,230,230);stroke:none"/>
<rect width="7" height="520" x="338" y="40" style="fill:rgb(230,230,230);stroke:none"/>
<text x="333" y="575" fill="rgb(0,0,0)" font-family="Arial" font-size="12">43</text>
<rect width="7" height="520" x="352" y="40" style="fill:rgb(230,230,230);stroke:none"/>
<rect width="7" height="520" x="366" y="40" style="fill:rgb(230,230,230);stroke:none"/>
<text x="361" y="575" fill="rgb(0,0,0)" font-family="Arial" font-size="12">47</text>
<rect width="7" height="520" x="380" y="40" style="fill:rgb(230,230,230);stroke:none"/>
<rect width="7" height="520" x="394" y="40" style="fill:rgb(230,230,230);stroke:none"/>
<text x="389" y="575" fill="rgb(0,0,0)" font-family="Arial" font-size="12">51</text>
<rect width="7" height="520" x="408" y="40" style="fill:rgb(230,230,230);stroke:none"/>
<rect width="7" height="520" x="422" y="40" style="fill:rgb(230,230,230);stroke:none"/>
<text x="417" y="575" fill="rgb(0,0,0)" font-family="Arial" font-size="12">55</text>
<rect width="7" height="520" x="436" y="40" style="fill:rgb(230,230,230);stroke:none"/>
<rect width="7" height="520" x="450" y="40" style="fill:rgb(230,230,230);stroke:none"/>
<text x="445" y="575" fill="rgb(0,0,0)" font-family="Arial" font-size="12">59</text>
<rect width="7" height="520" x="464" y="40" style="fill:rgb(230,230,230);stroke:none"/>
<rect width="7" height="520" x="478" y="40" style="fill:rgb(230,230,230);stroke:none"/>
<text x="473" y="575" fill="rgb(0,0,0)" font-family="Arial" font-size="12">63</text>
<rect width="7" height="520" x="492" y="40" style="fill:rgb(230,230,230);stroke:none"/>
<rect width="7" height="520" x="506" y="40" style="fill:rgb(230,230,230);stroke:none"/>
<text x="501" y="575" fill="rgb(0,0,0)" font-family="Arial" font-size="12">67</text>
<rect width="7" height="520" x="520" y="40" style="fill:rgb(230,230,230);stroke:none"/>
<rect width="7" height="520" x="534" y="40" style="fill:rgb(230,230,230);stroke:none"/>
<text x="529" y="575" fill="rgb(0,0,0)" font-family="Arial" font-size="12">71</text>
<rect width="7" height="520" x="548" y="40" style="fill:rgb(230,230,230);stroke:none"/>
<rect width="7" height="520" x="562" y="40" style="fill:rgb(230,230,230);stroke:none"/>
<text x="557" y="575" fill="rgb(0,0,0)" font-family="Arial" font-size="12">75</text>
<rect width="7" height="520" x="576" y="40" style="fill:rgb(230,230,230);stroke:none"/>
<rect width="7" height="520" x="590" y="40" style="fill:rgb(230,230,230);stroke:none"/>
<text x="585" y="575" fill="rgb(0,0,0)" font-family="Arial" font-size="12">79</text>
<rect width="7" height="520" x="604" y="40" style="fill:rgb(230,230,230);stroke:none"/>
<rect width="7" height="520" x="618" y="40" style="fill:rgb(230,230,230);stroke:none"/>
<text x="613" y="575" fill="rgb(0,0,0)" font-family="Arial" font-size="12">83</text>
<rect width="7" height="520" x="632" y="40" style="fill:rgb(230,230,230);stroke:none"/>
<rect width="7" height="520" x="646" y="40" style="fill:rgb(230,230,230);stroke:none"/>
<text x="641" y="575" fill="rgb(0,0,0)" font-family="Arial" font-size="12">87</text>
<rect width="7" height="520" x="660" y="40" style="fill:rgb(230,230,230);stroke:none"/>
<rect width="7" height="520" x="674" y="40" style="fill:rgb(230,230,230);stroke:none"/>
<text x="669" y="575" fill="rgb(0,0,0)" font-family="Arial" font-size="12">91</text>
<rect width="7" height="520" x="688" y="40" style="fill:rgb(230,230,230);stroke:none"/>
<rect width="7" height="520" x="702" y="40" style="fill:rgb(230,230,230);stroke:none"/>
<text x="697" y="575" fill="rgb(0,0,0)" font-family="Arial" font-size="12">95</text>
<rect width="7" height="520" x="716" y="40" style="fill:rgb(230,230,230);stroke:none"/>
<rect width="7" height="520" x="730" y="40" style="fill:rgb(230,230,230);stroke:none"/>
<text x="725" y="575" fill="rgb(0,0,0)" font-family="Arial" font-size="12">99</text>
<line x1="37" y1="560" x2="790" y2="560" stroke="rgb(180,180,180)" stroke-width="1"/>
<line x1="37" y1="467" x2="790" y2="467" stroke="rgb(180,180,180)" stroke-width="1"/>
<line x1="37" y1="373" x2="790" y2="373" stroke="rgb(180,180,180)" stroke-width="1"/>
<line x1="37" y1="279" x2="790" y2="279" stroke="rgb(180,180,180)" stroke-width="1"/>
<line x1="37" y1="186" x2="790" y2="186" stroke="rgb(180,180,180)" stroke-width="1"/>
<line x1="37" y1="92" x2="790" y2="92" stroke="rgb(180,180,180)" stroke-width="1"/>
<line x1="40" y1="560" x2="47" y2="560" stroke="rgb(136,34,85)" stroke-width="1"/>
<line x1="47" y1="560" x2="54" y2="560" stroke="rgb(136,34,85)" stroke-width="1"/>
<line x1="54" y1="560" x2="61" y2="560" stroke="rgb(136,34,85)" stroke-width="1"/>
<line x1="61" y1="560" x2="68" y2="560" stroke="rgb(136,34,85)" stroke-width="1"/>
<line x1="68" y1="560" x2="75" y2="560" stroke="rgb(136,34,85)" stroke-width="1"/>
<line x1="75" y1="560" x2="82" y2="560" stroke="rgb(136,34,85)" stroke-width="1"/>
<line x1="82" y1="560" x2="89" y2="560" stroke="rgb(136,34,85)" stroke-width="1"/>
<line x1="89" y1="560" x2="96" y2="560" stroke="rgb(136,34,85)" stroke-width="1"/>
<line x1="96" y1="560" x2="103" y2="560" stroke="rgb(136,34,85)" stroke-width="1"/>
<line x1="103" y1="560" x2="110" y2="560" stroke="rgb(136,34,85)" stroke-width="1"/>
<line x1="110" y1="560" x2="117" y2="560" stroke="rgb(136,34,85)" stroke-width="1"/>
<line x1="117" y1="560" x2="124" y2="560" stroke="rgb(136,34,85)" stroke-width="1"/>
<line x1="124" y1="560" x2="131" y2="560" stroke="rgb(136,34,85)" stroke-width="1"/>
<line x1="131" y1="560" x2="138" y2="560" stroke="rgb(136,34,85)" stroke-width="1"/>
<line x1="138" y1="560" x2="145" y2="560" stroke="rgb(136,34,85)" stroke-width="1"/>
<line x1="145" y1="560" x2="152" y2="560" stroke="rgb(136,34,85)" stroke-width="1"/>
<line x1="152" y1="560" x2="159" y2="560" stroke="rgb(136,34,85)" stroke-width="1"/>
<line x1="159" y1="560" x2="166" y2="560" stroke="rgb(136,34,85)" stroke-width="1"/>
<line x1="166" y1="560" x2="173" y2="560" stroke="rgb(136,34,85)" stroke-width="1"/>
<line x1="173" y1="560" x2="180" y2="560" stroke="rgb(136,34,85)" stroke-width="1"/>
<line x1="180" y1="560" x2="187" y2="560" stroke="rgb(136,34,85)" stroke-width="1"/>
<line x1="187" y1="560" x2="194" y2="560" stroke="rgb(136,34,85)" stroke-width="1"/>
<line x1="194" y1="560" x2="201" y2="560" stroke="rgb(136,34,85)" stroke-width="1"/>
<line x1="201" y1="560" x2="208" y2="560" stroke="rgb(136,34,85)" stroke-width="1"/>
<line x1="208" y1="560" x2="215" y2="560" stroke="rgb(136,34,85)" stroke-width="1"/>
<line x1="215" y1="560" x2="222" y2="560" stroke="rgb(136,34,85)" stroke-width="1"/>
<line x1="222" y1="560" x2="229" y2="560" stroke="rgb(136,34,85)" stroke-width="1"/>
<line x1="229" y1="560" x2="236" y2="560" stroke="rgb(136,34,85)" stroke-width="1"/>
<line x1="236" y1="560" x2="243" y2="560" stroke="rgb(136,34,85)" stroke-width="1"/>
<line x1="243" y1="560" x2="250" y2="560" stroke="rgb(136,34,85)" stroke-width="1"/>
<line x1="250" y1="560" x2="257" y2="560" stroke="rgb(136,34,85)" stroke-width="1"/>
<line x1="257" y1="560" x2="264" y2="560" stroke="rgb(136,34,85)" stroke-width="1"/>
<line x1="264" y1="560" x2="271" y2="560" stroke="rgb(136,34,85)" stroke-width="1"/>
<line x1="271" y1="560" x2="278" y2="560" stroke="rgb(136,34,85)" stroke-width="1"/>
<line x1="278" y1="560" x2="285" y2="560" stroke="rgb(136,34,85)" stroke-width="1"/>
<line x1="285" y1="560" x2="292" y2="560" stroke="rgb(136,34,85)" stroke-width="1"/>
<line x1="292" y1="560" x2="299" y2="560" stroke="rgb(136,34,85)" stroke-width="1"/>
<line x1="299" y1="560" x2="306" y2="560" stroke="rgb(136,34,85)" stroke-width="1"/>
<line x1="306" y1="560" x2="313" y2="560" stroke="rgb(136,34,85)" stroke-width="1"/>
<line x1="313" y1="560" x2="320" y2="560" stroke="rgb(136,34,85)" stroke-width="1"/>
<line x1="320" y1="560" x2="327" y2="560" stroke="rgb(136,34,85)" stroke-width="1"/>
<line x1="327" y1="560" x2="334" y2="560" stroke="rgb(136,34,85)" stroke-width="1"/>
<line x1="334" y1="560" x2="341" y2="560" stroke="rgb(136,34,85)" stroke-width="1"/>
<line x1="341" y1="560" x2="348" y2="560" stroke="rgb(136,34,85)" stroke-width="1"/>
<line x1="348" y1="560" x2="355" y2="560" stroke="rgb(136,34,85)" stroke-width="1"/>
<line x1="355" y1="560" x2="362" y2="560" stroke="rgb(136,34,85)" stroke-width="1"/>
<line x1="362" y1="560" x2="369" y2="560" stroke="rgb(136,34,85)" stroke-width="1"/>
<line x1="369" y1="560" x2="376" y2="560" stroke="rgb(136,34,85)" stroke-width="1"/>
<line x1="376" y1="560" x2="383" y2="557" stroke="rgb(136,34,85)" stroke-width="1"/>
<line x1="383" y1="557" x2="390" y2="535" stroke="rgb(136,34,85)" stroke-width="1"/>
<line x1="390" y1="535" x2="397" y2="519" stroke="rgb(136,34,85)" stroke-width="1"/>
<line x1="397" y1="519" x2="404" y2="468" stroke="rgb(136,34,85)" stroke-width="1"/>
<line x1="404" y1="468" x2="411" y2="380" stroke="rgb(136,34,85)" stroke-width="1"/>
<line x1="411" y1="380" x2="418" y2="220" stroke="rgb(136,34,85)" stroke-width="1"/>
<line x1="418" y1="220" x2="425" y2="118" stroke="rgb(136,34,85)" stroke-width="1"/>
<line x1="425" y1="118" x2="432" y2="238" stroke="rgb(136,34,85)" stroke-width="1"/>
<line x1="432" y1="238" x2="439" y2="194" stroke="rgb(136,34,85)" stroke-width="1"/>
<line x1="439" y1="194" x2="446" y2="40" stroke="rgb(136,34,85)" stroke-width="1"/>
<line x1="446" y1="40" x2="453" y2="210" stroke="rgb(136,34,85)" stroke-width="1"/>
<line x1="453" y1="210" x2="460" y2="232" stroke="rgb(136,34,85)" stroke-width="1"/>
<line x1="460" y1="232" x2="467" y2="487" stroke="rgb(136,34,85)" stroke-width="1"/>
<line x1="467" y1="487" x2="474" y2="552" stroke="rgb(136,34,85)" stroke-width="1"/>
<line x1="474" y1="552" x2="481" y2="545" stroke="rgb(136,34,85)" stroke-width="1"/>
<line x1="481" y1="545" x2="488" y2="559" stroke="rgb(136,34,85)" stroke-width="1"/>
<line x1="488" y1="559" x2="495" y2="560" stroke="rgb(136,34,85)" stroke-width="1"/>
<line x1="495" y1="560" x2="502" y2="560" stroke="rgb(136,34,85)" stroke-width="1"/>
<line x1="502" y1="560" x2="509" y2="560" stroke="rgb(136,34,85)" stroke-width="1"/>
<line x1="509" y1="560" x2="516" y2="560" stroke="rgb(136,34,85)" stroke-width="1"/>
<line x1="516" y1="560" x2="523" y2="560" stroke="rgb(136,34,85)" stroke-width="1"/>
<line x1="523" y1="560" x2="530" y2="560" stroke="rgb(136,34,85)" stroke-width="1"/>
<line x1="530" y1="560" x2="537" y2="560" stroke="rgb(136,34,85)" stroke-width="1"/>
<line x1="537" y1="560" x2="544" y2="560" stroke="rgb(136,34,85)" stroke-width="1"/>
<line x1="544" y1="560" x2="551" y2="560" stroke="rgb(136,34,85)" stroke-width="1"/>
<line x1="551" y1="560" x2="558" y2="560" stroke="rgb(136,34,85)" stroke-width="1"/>
<line x1="558" y1="560" x2="565" y2="560" stroke="rgb(136,34,85)" stroke-width="1"/>
<line x1="565" y1="560" x2="572" y2="560" stroke="rgb(136,34,85)" stroke-width="1"/>
<line x1="572" y1="560" x2="579" y2="560" stroke="rgb(136,34,85)" stroke-width="1"/>
<line x1="579" y1="560" x2="586" y2="560" stroke="rgb(136,34,85)" stroke-width="1"/>
<line x1="586" y1="560" x2="593" y2="560" stroke="rgb(136,34,85)" stroke-width="1"/>
<line x1="593" y1="560" x2="600" y2="560" stroke="rgb(136,34,85)" stroke-width="1"/>
<line x1="600" y1="560" x2="607" y2="560" stroke="rgb(136,34,85)" stroke-width="1"/>
<line x1="607" y1="560" x2="614" y2="560" stroke="rgb(136,34,85)" stroke-width="1"/>
<line x1="614" y1="560" x2="621" y2="560" stroke="rgb(136,34,85)" stroke-width="1"/>
<line x1="621" y1="560" x2="628" y2="560" stroke="rgb(136,34,85)" stroke-width="1"/>
<line x1="628" y1="560" x2="635" y2="560" stroke="rgb(136,34,85)" stroke-width="1"/>
<line x1="635" y1="560" x2="642" y2="560" stroke="rgb(136,34,85)" stroke-width="1"/>
<line x1="642" y1="560" x2="649" y2="560" stroke="rgb(136,34,85)" stroke-width="1"/>
<line x1="649" y1="560" x2="656" y2="560" stroke="rgb(136,34,85)" stroke-width="1"/>
<line x1="656" y1="560" x2="663" y2="560" stroke="rgb(136,34,85)" stroke-width="1"/>
<line x1="663" y1="560" x2="670" y2="560" stroke="rgb(136,34,85)" stroke-width="1"/>
<line x1="670" y1="560" x2="677" y2="560" stroke="rgb(136,34,85)" stroke-width="1"/>
<line x1="677" y1="560" x2="684" y2="560" stroke="rgb(136,34,85)" stroke-width="1"/>
<line x1="684" y1="560" x2="691" y2="560" stroke="rgb(136,34,85)" stroke-width="1"/>
<line x1="691" y1="560" x2="698" y2="560" stroke="rgb(136,34,85)" stroke-width="1"/>
<line x1="698" y1="560" x2="705" y2="560" stroke="rgb(136,34,85)" stroke-width="1"/>
<line x1="705" y1="560" x2="712" y2="560" stroke="rgb(136,34,85)" stroke-width="1"/>
<line x1="712" y1="560" x2="719" y2="560" stroke="rgb(136,34,85)" stroke-width="1"/>
<line x1="719" y1="560" x2="726" y2="560" stroke="rgb(136,34,85)" stroke-width="1"/>
<line x1="726" y1="560" x2="733" y2="560" stroke="rgb(136,34,85)" stroke-width="1"/>
<line x1="733" y1="560" x2="740" y2="560" stroke="rgb(136,34,85)" stroke-width="1"/>
<line x1="40" y1="560" x2="47" y2="560" stroke="rgb(51,34,136)" stroke-width="1"/>
<line x1="47" y1="560" x2="54" y2="560" stroke="rgb(51,34,136)" stroke-width="1"/>
<line x1="54" y1="560" x2="61" y2="560" stroke="rgb(51,34,136)" stroke-width="1"/>
<line x1="61" y1="560" x2="68" y2="560" stroke="rgb(51,34,136)" stroke-width="1"/>
<line x1="68" y1="560" x2="75" y2="560" stroke="rgb(51,34,136)" stroke-width="1"/>
<line x1="75" y1="560" x2="82" y2="560" stroke="rgb(51,34,136)" stroke-width="1"/>
<line x1="82" y1="560" x2="89" y2="560" stroke="rgb(51,34,136)" stroke-width="1"/>
<line x1="89" y1="560" x2="96" y2="560" stroke="rgb(51,34,136)" stroke-width="1"/>
<line x1="96" y1="560" x2="103" y2="560" stroke="rgb(51,34,136)" stroke-width="1"/>
<line x1="103" y1="560" x2="110" y2="560" stroke="rgb(51,34,136)" stroke-width="1"/>
<line x1="110" y1="560" x2="117" y2="560" stroke="rgb(51,34,136)" stroke-width="1"/>
<line x1="117" y1="560" x2="124" y2="560" stroke="rgb(51,34,136)" stroke-width="1"/>
<line x1="124" y1="560" x2="131" y2="560" stroke="rgb(51,34,136)" stroke-width="1"/>
<line x1="131" y1="560" x2="138" y2="560" stroke="rgb(51,34,136)" stroke-width="1"/>
<line x1="138" y1="560" x2="145" y2="560" stroke="rgb(51,34,136)" stroke-width="1"/>
<line x1="145" y1="560" x2="152" y2="560" stroke="rgb(51,34,136)" stroke-width="1"/>
<line x1="152" y1="560" x2="159" y2="560" stroke="rgb(51,34,136)" stroke-width="1"/>
<line x1="159" y1="560" x2="166" y2="560" stroke="rgb(51,34,136)" stroke-width="1"/>
<line x1="166" y1="560" x2="173" y2="560" stroke="rgb(51,34,136)" stroke-width="1"/>
<line x1="173" y1="560" x2="180" y2="560" stroke="rgb(51,34,136)" stroke-width="1"/>
<line x1="180" y1="560" x2="187" y2="560" stroke="rgb(51,34,136)" stroke-width="1"/>
<line x1="187" y1="560" x2="194" y2="560" stroke="rgb(51,34,136)" stroke-width="1"/>
<line x1="194" y1="560" x2="201" y2="560" stroke="rgb(51,34,136)" stroke-width="1"/>
<line x1="201" y1="560" x2="208" y2="560" stroke="rgb(51,34,136)" stroke-width="1"/>
<line x1="208" y1="560" x2="215" y2="560" stroke="rgb(51,34,136)" stroke-width="1"/>
<line x1="215" y1="560" x2="222" y2="560" stroke="rgb(51,34,136)" stroke-width="1"/>
<line x1="222" y1="560" x2="229" y2="560" stroke="rgb(51,34,136)" stroke-width="1"/>
<line x1="229" y1="560" x2="236" y2="560" stroke="rgb(51,34,136)" stroke-width="1"/>
<line x1="236" y1="560" x2="243" y2="560" stroke="rgb(51,34,136)" stroke-width="1"/>
<line x1="243" y1="560" x2="250" y2="560" stroke="rgb(51,34,136)" stroke-width="1"/>
<line x1="250" y1="560" x2="257" y2="560" stroke="rgb(51,34,136)" stroke-width="1"/>
<line x1="257" y1="560" x2="264" y2="560" stroke="rgb(51,34,136)" stroke-width="1"/>
<line x1="264" y1="560" x2="271" y2="560" stroke="rgb(51,34,136)" stroke-width="1"/>
<line x1="271" y1="560" x2="278" y2="560" stroke="rgb(51,34,136)" stroke-width="1"/>
<line x1="278" y1="560" x2="285" y2="560" stroke="rgb(51,34,136)" stroke-width="1"/>
<line x1="285" y1="560" x2="292" y2="560" stroke="rgb(51,34,136)" stroke-width="1"/>
<line x1="292" y1="560" x2="299" y2="560" stroke="rgb(51,34,136)" stroke-width="1"/>
<line x1="299" y1="560" x2="306" y2="560" stroke="rgb(51,34,136)" stroke-width="1"/>
<line x1="306" y1="560" x2="313" y2="560" stroke="rgb(51,34,136)" stroke-width="1"/>
<line x1="313" y1="560" x2="320" y2="560" stroke="rgb(51,34,136)" stroke-width="1"/>
<line x1="320" y1="560" x2="327" y2="560" stroke="rgb(51,34,136)" stroke-width="1"/>
<line x1="327" y1="560" x2="334" y2="560" stroke="rgb(51,34,136)" stroke-width="1"/>
<line x1="334" y1="560" x2="341" y2="560" stroke="rgb(51,34,136)" stroke-width="1"/>
<line x1="341" y1="560" x2="348" y2="560" stroke="rgb(51,34,136)" stroke-width="1"/>
<line x1="348" y1="560" x2="355" y2="560" stroke="rgb(51,34,136)" stroke-width="1"/>
<line x1="355" y1="560" x2="362" y2="560" stroke="rgb(51,34,136)" stroke-width="1"/>
<line x1="362" y1="560" x2="369" y2="560" stroke="rgb(51,34,136)" stroke-width="1"/>
<line x1="369" y1="560" x2="376" y2="559" stroke="rgb(51,34,136)" stroke-width="1"/>
<line x1="376" y1="559" x2="383" y2="557" stroke="rgb(51,34,136)" stroke-width="1"/>
<line x1="383" y1="557" x2="390" y2="551" stroke="rgb(51,34,136)" stroke-width="1"/>
<line x1="390" y1="551" x2="397" y2="538" stroke="rgb(51,34,136)" stroke-width="1"/>
<line x1="397" y1="538" x2="404" y2="511" stroke="rgb(51,34,136)" stroke-width="1"/>
<line x1="404" y1="511" x2="411" y2="464" stroke="rgb(51,34,136)" stroke-width="1"/>
<line x1="411" y1="464" x2="418" y2="396" stroke="rgb(51,34,136)" stroke-width="1"/>
<line x1="418" y1="396" x2="425" y2="310" stroke="rgb(51,34,136)" stroke-width="1"/>
<line x1="425" y1="310" x2="432" y2="222" stroke="rgb(51,34,136)" stroke-width="1"/>
<line x1="432" y1="222" x2="439" y2="155" stroke="rgb(51,34,136)" stroke-width="1"/>
<line x1="439" y1="155" x2="446" y2="130" stroke="rgb(51,34,136)" stroke-width="1"/>
<line x1="446" y1="130" x2="453" y2="155" stroke="rgb(51,34,136)" stroke-width="1"/>
<line x1="453" y1="155" x2="460" y2="222" stroke="rgb(51,34,136)" stroke-width="1"/>
<line x1="460" y1="222" x2="467" y2="310" stroke="rgb(51,34,136)" stroke-width="1"/>
<line x1="467" y1="310" x2="474" y2="396" stroke="rgb(51,34,136)" stroke-width="1"/>
<line x1="474" y1="396" x2="481" y2="464" stroke="rgb(51,34,136)" stroke-width="1"/>
<line x1="481" y1="464" x2="488" y2="511" stroke="rgb(51,34,136)" stroke-width="1"/>
<line x1="488" y1="511" x2="495" y2="538" stroke="rgb(51,34,136)" stroke-width="1"/>
<line x1="495" y1="538" x2="502" y2="551" stroke="rgb(51,34,136)" stroke-width="1"/>
<line x1="502" y1="551" x2="509" y2="557" stroke="rgb(51,34,136)" stroke-width="1"/>
<line x1="509" y1="557" x2="516" y2="559" stroke="rgb(51,34,136)" stroke-width="1"/>
<line x1="516" y1="559" x2="523" y2="560" stroke="rgb(51,34,136)" stroke-width="1"/>
<line x1="523" y1="560" x2="530" y2="560" stroke="rgb(51,34,136)" stroke-width="1"/>
<line x1="530" y1="560" x2="537" y2="560" stroke="rgb(51,34,136)" stroke-width="1"/>
<line x1="537" y1="560" x2="544" y2="560" stroke="rgb(51,34,136)" stroke-width="1"/>
<line x1="544" y1="560" x2="551" y2="560" stroke="rgb(51,34,136)" stroke-width="1"/>
<line x1="551" y1="560" x2="558" y2="560" stroke="rgb(51,34,136)" stroke-width="1"/>
<line x1="558" y1="560" x2="565" y2="560" stroke="rgb(51,34,136)" stroke-width="1"/>
<line x1="565" y1="560" x2="572" y2="560" stroke="rgb(51,34,136)" stroke-width="1"/>
<line x1="572" y1="560" x2="579" y2="560" stroke="rgb(51,34,136)" stroke-width="1"/>
<line x1="579" y1="560" x2="586" y2="560" stroke="rgb(51,34,136)" stroke-width="1"/>
<line x1="586" y1="560" x2="593" y2="560" stroke="rgb(51,34,136)" stroke-width="1"/>
<line x1="593" y1="560" x2="600" y2="560" stroke="rgb(51,34,136)" stroke-width="1"/>
<line x1="600" y1="560" x2="607" y2="560" stroke="rgb(51,34,136)" stroke-width="1"/>
<line x1="607" y1="560" x2="614" y2="560" stroke="rgb(51,34,136)" stroke-width="1"/>
<line x1="614" y1="560" x2="621" y2="560" stroke="rgb(51,34,136)" stroke-width="1"/>
<line x1="621" y1="560" x2="628" y2="560" stroke="rgb(51,34,136)" stroke-width="1"/>
<line x1="628" y1="560" x2="635" y2="560" stroke="rgb(51,34,136)" stroke-width="1"/>
<line x1="635" y1="560" x2="642" y2="560" stroke="rgb(51,34,136)" stroke-width="1"/>
<line x1="642" y1="560" x2="649" y2="560" stroke="rgb(51,34,136)" stroke-width="1"/>
<line x1="649" y1="560" x2="656" y2="560" stroke="rgb(51,34,136)" stroke-width="1"/>
<line x1="656" y1="560" x2="663" y2="560" stroke="rgb(51,34,136)" stroke-width="1"/>
<line x1="663" y1="560" x2="670" y2="560" stroke="rgb(51,34,136)" stroke-width="1"/>
<line x1="670" y1="560" x2="677" y2="560" stroke="rgb(51,34,136)" stroke-width="1"/>
<line x1="677" y1="560" x2="684" y2="560" stroke="rgb(51,34,136)" stroke-width="1"/>
<line x1="684" y1="560" x2="691" y2="560" stroke="rgb(51,34,136)" stroke-width="1"/>
<line x1="691" y1="560" x2="698" y2="560" stroke="rgb(51,34,136)" stroke-width="1"/>
<line x1="698" y1="560" x2="705" y2="560" stroke="rgb(51,34,136)" stroke-width="1"/>
<line x1="705" y1="560" x2="712" y2="560" stroke="rgb(51,34,136)" stroke-width="1"/>
<line x1="712" y1="560" x2="719" y2="560" stroke="rgb(51,34,136)" stroke-width="1"/>
<line x1="719" y1="560" x2="726" y2="560" stroke="rgb(51,34,136)" stroke-width="1"/>
<line x1="726" y1="560" x2="733" y2="560" stroke="rgb(51,34,136)" stroke-width="1"/>
<line x1="733" y1="560" x2="740" y2="560" stroke="rgb(51,34,136)" stroke-width="1"/>
<rect width="174" height="43" x="616" y="40" style="fill:rgb(255,255,255);stroke:none"/>
<rect width="174" height="43" x="616" y="40" rx="0" ry="0" style="fill:none;stroke-width:1;stroke:rgb(192,192,192)"/>
<text x="619" y="55" fill="rgb(136,34,85)" font-family="Arial" font-size="12" font-weight="bold">GC count per read</text>
<text x="619" y="75" fill="rgb(51,34,136)" font-family="Arial" font-size="12" font-weight="bold">Theoretical Distribution</text>
</svg>
