<?xml version="1.0" standalone="no"?>
<!DOCTYPE svg PUBLIC "-//W3C//DTD SVG 1.1//EN" "http://www.w3.org/Graphics/SVG/1.1/DTD/svg11.dtd">
<svg width="800" height="600" version="1.1" xmlns="http://www.w3.org/2000/svg">
<rect width="800" height="600" x="0" y="0" style="fill:rgb(238,238,238);stroke:none"/>
<rect width="800" height="600" x="0" y="0" style="fill:rgb(255,255,255);stroke:none"/>
<text x="2" y="566" fill="rgb(0,0,0)" font-family="Arial" font-size="12">0</text>
<text x="2" y="502" fill="rgb(0,0,0)" font-family="Arial" font-size="12">10000</text>
<text x="2" y="438" fill="rgb(0,0,0)" font-family="Arial" font-size="12">20000</text>
<text x="2" y="374" fill="rgb(0,0,0)" font-family="Arial" font-size="12">30000</text>
<text x="2" y="309" fill="rgb(0,0,0)" font-family="Arial" font-size="12">40000</text>
<text x="2" y="245" fill="rgb(0,0,0)" font-family="Arial" font-size="12">50000</text>
<text x="2" y="181" fill="rgb(0,0,0)" font-family="Arial" font-size="12">60000</text>
<text x="2" y="116" fill="rgb(0,0,0)" font-family="Arial" font-size="12">70000</text>
<text x="2" y="52" fill="rgb(0,0,0)" font-family="Arial" font-size="12">80000</text>
<text x="278" y="30" fill="rgb(0,0,0)" font-family="Arial" font-size="12">Quality score distribution over all sequences</text>
<line x1="45" y1="560" x2="790" y2="560" stroke="rgb(0,0,0)" stroke-width="1"/>
<line x1="45" y1="560" x2="45" y2="40" stroke="rgb(0,0,0)" stroke-width="1"/>
<text x="281" y="595" fill="rgb(0,0,0)" font-family="Arial" font-size="12">Mean Sequence Quality (Phred Score)</text>
<text x="53" y="575" fill="rgb(0,0,0)" font-family="Arial" font-size="12">18</text>
<rect width="33" height="520" x="78" y="40" style="fill:rgb(230,230,230);stroke:none"/>
<text x="86" y="575" fill="rgb(0,0,0)" font-family="Arial" font-size="12">19</text>
<text x="119" y="575" fill="rgb(0,0,0)" font-family="Arial" font-size="12">20</text>
<rect width="33" height="520" x="144" y="40" style="fill:rgb(230,230,230);stroke:none"/>
<text x="152" y="575" fill="rgb(0,0,0)" font-family="Arial" font-size="12">21</text>
<text x="185" y="575" fill="rgb(0,0,0)" font-family="Arial" font-size="12">22</text>
<rect width="33" height="520" x="210" y="40" style="fill:rgb(230,230,230);stroke:none"/>
<text x="218" y="575" fill="rgb(0,0,0)" font-family="Arial" font-size="12">23</text>
<text x="251" y="575" fill="rgb(0,0,0)" font-family="Arial" font-size="12">24</text>
<rect width="33" height="520" x="276" y="40" style="fill:rgb(230,230,230);stroke:none"/>
<text x="284" y="575" fill="rgb(0,0,0)" font-family="Arial" font-size="12">25</text>
<text x="317" y="575" fill="rgb(0,0,0)" font-family="Arial" font-size="12">26</text>
<rect width="33" height="520" x="342" y="40" style="fill:rgb(230,230,230);stroke:none"/>
<text x="350" y="575" fill="rgb(0,0,0)" font-family="Arial" font-size="12">27</text>
<text x="383" y="575" fill="rgb(0,0,0)" font-family="Arial" font-size="12">28</text>
<rect width="33" height="520" x="408" y="40" style="fill:rgb(230,230,230);stroke:none"/>
<text x="416" y="575" fill="rgb(0,0,0)" font-family="Arial" font-size="12">29</text>
<text x="449" y="575" fill="rgb(0,0,0)" font-family="Arial" font-size="12">30</text>
<rect width="33" height="520" x="474" y="40" style="fill:rgb(230,230,230);stroke:none"/>
<text x="482" y="575" fill="rgb(0,0,0)" font-family="Arial" font-size="12">31</text>
<text x="515" y="575" fill="rgb(0,0,0)" font-family="Arial" font-size="12">32</text>
<rect width="33" height="520" x="540" y="40" style="fill:rgb(230,230,230);stroke:none"/>
<text x="548" y="575" fill="rgb(0,0,0)" font-family="Arial" font-size="12">33</text>
<text x="581" y="575" fill="rgb(0,0,0)" font-family="Arial" font-size="12">34</text>
<rect width="33" height="520" x="606" y="40" style="fill:rgb(230,230,230);stroke:none"/>
<text x="614" y="575" fill="rgb(0,0,0)" font-family="Arial" font-size="12">35</text>
<text x="647" y="575" fill="rgb(0,0,0)" font-family="Arial" font-size="12">36</text>
<rect width="33" height="520" x="672" y="40" style="fill:rgb(230,230,230);stroke:none"/>
<text x="680" y="575" fill="rgb(0,0,0)" font-family="Arial" font-size="12">37</text>
<text x="713" y="575" fill="rgb(0,0,0)" font-family="Arial" font-size="12">38</text>
<rect width="33" height="520" x="738" y="40" style="fill:rgb(230,230,230);stroke:none"/>
<text x="746" y="575" fill="rgb(0,0,0)" font-family="Arial" font-size="12">39</text>
<line x1="45" y1="560" x2="790" y2="560" stroke="rgb(180,180,180)" stroke-width="1"/>
<line x1="45" y1="496" x2="790" y2="496" stroke="rgb(180,180,180)" stroke-width="1"/>
<line x1="45" y1="432" x2="790" y2="432" stroke="rgb(180,180,180)" stroke-width="1"/>
<line x1="45" y1="368" x2="790" y2="368" stroke="rgb(180,180,180)" stroke-width="1"/>
<line x1="45" y1="303" x2="790" y2="303" stroke="rgb(180,180,180)" stroke-width="1"/>
<line x1="45" y1="239" x2="790" y2="239" stroke="rgb(180,180,180)" stroke-width="1"/>
<line x1="45" y1="175" x2="790" y2="175" stroke="rgb(180,180,180)" stroke-width="1"/>
<line x1="45" y1="110" x2="790" y2="110" stroke="rgb(180,180,180)" stroke-width="1"/>
<line x1="45" y1="46" x2="790" y2="46" stroke="rgb(180,180,180)" stroke-width="1"/>
<line x1="61" y1="560" x2="94" y2="560" stroke="rgb(136,34,85)" stroke-width="1"/>
<line x1="94" y1="560" x2="127" y2="560" stroke="rgb(136,34,85)" stroke-width="1"/>
<line x1="127" y1="560" x2="160" y2="560" stroke="rgb(136,34,85)" stroke-width="1"/>
<line x1="160" y1="560" x2="193" y2="560" stroke="rgb(136,34,85)" stroke-width="1"/>
<line x1="193" y1="560" x2="226" y2="560" stroke="rgb(136,34,85)" stroke-width="1"/>
<line x1="226" y1="560" x2="259" y2="560" stroke="rgb(136,34,85)" stroke-width="1"/>
<line x1="259" y1="560" x2="292" y2="560" stroke="rgb(136,34,85)" stroke-width="1"/>
<line x1="292" y1="560" x2="325" y2="560" stroke="rgb(136,34,85)" stroke-width="1"/>
<line x1="325" y1="560" x2="358" y2="560" stroke="rgb(136,34,85)" stroke-width="1"/>
<line x1="358" y1="560" x2="391" y2="560" stroke="rgb(136,34,85)" stroke-width="1"/>
<line x1="391" y1="560" x2="424" y2="559" stroke="rgb(136,34,85)" stroke-width="1"/>
<line x1="424" y1="559" x2="457" y2="559" stroke="rgb(136,34,85)" stroke-width="1"/>
<line x1="457" y1="559" x2="490" y2="559" stroke="rgb(136,34,85)" stroke-width="1"/>
<line x1="490" y1="559" x2="523" y2="558" stroke="rgb(136,34,85)" stroke-width="1"/>
<line x1="523" y1="558" x2="556" y2="558" stroke="rgb(136,34,85)" stroke-width="1"/>
<line x1="556" y1="558" x2="589" y2="556" stroke="rgb(136,34,85)" stroke-width="1"/>
<line x1="589" y1="556" x2="622" y2="554" stroke="rgb(136,34,85)" stroke-width="1"/>
<line x1="622" y1="554" x2="655" y2="549" stroke="rgb(136,34,85)" stroke-width="1"/>
<line x1="655" y1="549" x2="688" y2="537" stroke="rgb(136,34,85)" stroke-width="1"/>
<line x1="688" y1="537" x2="721" y2="484" stroke="rgb(136,34,85)" stroke-width="1"/>
<line x1="721" y1="484" x2="754" y2="40" stroke="rgb(136,34,85)" stroke-width="1"/>
<rect width="183" height="23" x="607" y="40" style="fill:rgb(255,255,255);stroke:none"/>
<rect width="183" height="23" x="607" y="40" rx="0" ry="0" style="fill:none;stroke-width:1;stroke:rgb(192,192,192)"/>
<text x="610" y="55" fill="rgb(136,34,85)" font-family="Arial" font-size="12" font-weight="bold">Average Quality per read</text>
</svg>
