<?xml version="1.0" standalone="no"?>
<!DOCTYPE svg PUBLIC "-//W3C//DTD SVG 1.1//EN" "http://www.w3.org/Graphics/SVG/1.1/DTD/svg11.dtd">
<svg width="800" height="600" version="1.1" xmlns="http://www.w3.org/2000/svg">
<rect width="800" height="600" x="0" y="0" style="fill:rgb(238,238,238);stroke:none"/>
<rect width="800" height="600" x="0" y="0" style="fill:rgb(255,255,255);stroke:none"/>
<text x="2" y="566" fill="rgb(0,0,0)" font-family="Arial" font-size="12">0</text>
<text x="2" y="493" fill="rgb(0,0,0)" font-family="Arial" font-size="12">5000</text>
<text x="2" y="420" fill="rgb(0,0,0)" font-family="Arial" font-size="12">10000</text>
<text x="2" y="347" fill="rgb(0,0,0)" font-family="Arial" font-size="12">15000</text>
<text x="2" y="274" fill="rgb(0,0,0)" font-family="Arial" font-size="12">20000</text>
<text x="2" y="200" fill="rgb(0,0,0)" font-family="Arial" font-size="12">25000</text>
<text x="2" y="127" fill="rgb(0,0,0)" font-family="Arial" font-size="12">30000</text>
<text x="2" y="54" fill="rgb(0,0,0)" font-family="Arial" font-size="12">35000</text>
<text x="278" y="30" fill="rgb(0,0,0)" font-family="Arial" font-size="12">Quality score distribution over all sequences</text>
<line x1="45" y1="560" x2="790" y2="560" stroke="rgb(0,0,0)" stroke-width="1"/>
<line x1="45" y1="560" x2="45" y2="40" stroke="rgb(0,0,0)" stroke-width="1"/>
<text x="281" y="595" fill="rgb(0,0,0)" font-family="Arial" font-size="12">Mean Sequence Quality (Phred Score)</text>
<text x="51" y="575" fill="rgb(0,0,0)" font-family="Arial" font-size="12">14</text>
<rect width="28" height="520" x="73" y="40" style="fill:rgb(230,230,230);stroke:none"/>
<text x="79" y="575" fill="rgb(0,0,0)" font-family="Arial" font-size="12">15</text>
<text x="107" y="575" fill="rgb(0,0,0)" font-family="Arial" font-size="12">16</text>
<rect width="28" height="520" x="129" y="40" style="fill:rgb(230,230,230);stroke:none"/>
<text x="135" y="575" fill="rgb(0,0,0)" font-family="Arial" font-size="12">17</text>
<text x="163" y="575" fill="rgb(0,0,0)" font-family="Arial" font-size="12">18</text>
<rect width="28" height="520" x="185" y="40" style="fill:rgb(230,230,230);stroke:none"/>
<text x="191" y="575" fill="rgb(0,0,0)" font-family="Arial" font-size="12">19</text>
<text x="219" y="575" fill="rgb(0,0,0)" font-family="Arial" font-size="12">20</text>
<rect width="28" height="520" x="241" y="40" style="fill:rgb(230,230,230);stroke:none"/>
<text x="247" y="575" fill="rgb(0,0,0)" font-family="Arial" font-size="12">21</text>
<text x="275" y="575" fill="rgb(0,0,0)" font-family="Arial" font-size="12">22</text>
<rect width="28" height="520" x="297" y="40" style="fill:rgb(230,230,230);stroke:none"/>
<text x="303" y="575" fill="rgb(0,0,0)" font-family="Arial" font-size="12">23</text>
<text x="331" y="575" fill="rgb(0,0,0)" font-family="Arial" font-size="12">24</text>
<rect width="28" height="520" x="353" y="40" style="fill:rgb(230,230,230);stroke:none"/>
<text x="359" y="575" fill="rgb(0,0,0)" font-family="Arial" font-size="12">25</text>
<text x="387" y="575" fill="rgb(0,0,0)" font-family="Arial" font-size="12">26</text>
<rect width="28" height="520" x="409" y="40" style="fill:rgb(230,230,230);stroke:none"/>
<text x="415" y="575" fill="rgb(0,0,0)" font-family="Arial" font-size="12">27</text>
<text x="443" y="575" fill="rgb(0,0,0)" font-family="Arial" font-size="12">28</text>
<rect width="28" height="520" x="465" y="40" style="fill:rgb(230,230,230);stroke:none"/>
<text x="471" y="575" fill="rgb(0,0,0)" font-family="Arial" font-size="12">29</text>
<text x="499" y="575" fill="rgb(0,0,0)" font-family="Arial" font-size="12">30</text>
<rect width="28" height="520" x="521" y="40" style="fill:rgb(230,230,230);stroke:none"/>
<text x="527" y="575" fill="rgb(0,0,0)" font-family="Arial" font-size="12">31</text>
<text x="555" y="575" fill="rgb(0,0,0)" font-family="Arial" font-size="12">32</text>
<rect width="28" height="520" x="577" y="40" style="fill:rgb(230,230,230);stroke:none"/>
<text x="583" y="575" fill="rgb(0,0,0)" font-family="Arial" font-size="12">33</text>
<text x="611" y="575" fill="rgb(0,0,0)" font-family="Arial" font-size="12">34</text>
<rect width="28" height="520" x="633" y="40" style="fill:rgb(230,230,230);stroke:none"/>
<text x="639" y="575" fill="rgb(0,0,0)" font-family="Arial" font-size="12">35</text>
<text x="667" y="575" fill="rgb(0,0,0)" font-family="Arial" font-size="12">36</text>
<rect width="28" height="520" x="689" y="40" style="fill:rgb(230,230,230);stroke:none"/>
<text x="695" y="575" fill="rgb(0,0,0)" font-family="Arial" font-size="12">37</text>
<text x="723" y="575" fill="rgb(0,0,0)" font-family="Arial" font-size="12">38</text>
<rect width="28" height="520" x="745" y="40" style="fill:rgb(230,230,230);stroke:none"/>
<text x="751" y="575" fill="rgb(0,0,0)" font-family="Arial" font-size="12">39</text>
<line x1="45" y1="560" x2="790" y2="560" stroke="rgb(180,180,180)" stroke-width="1"/>
<line x1="45" y1="487" x2="790" y2="487" stroke="rgb(180,180,180)" stroke-width="1"/>
<line x1="45" y1="414" x2="790" y2="414" stroke="rgb(180,180,180)" stroke-width="1"/>
<line x1="45" y1="341" x2="790" y2="341" stroke="rgb(180,180,180)" stroke-width="1"/>
<line x1="45" y1="268" x2="790" y2="268" stroke="rgb(180,180,180)" stroke-width="1"/>
<line x1="45" y1="194" x2="790" y2="194" stroke="rgb(180,180,180)" stroke-width="1"/>
<line x1="45" y1="121" x2="790" y2="121" stroke="rgb(180,180,180)" stroke-width="1"/>
<line x1="45" y1="48" x2="790" y2="48" stroke="rgb(180,180,180)" stroke-width="1"/>
<line x1="59" y1="560" x2="87" y2="560" stroke="rgb(136,34,85)" stroke-width="1"/>
<line x1="87" y1="560" x2="115" y2="560" stroke="rgb(136,34,85)" stroke-width="1"/>
<line x1="115" y1="560" x2="143" y2="560" stroke="rgb(136,34,85)" stroke-width="1"/>
<line x1="143" y1="560" x2="171" y2="560" stroke="rgb(136,34,85)" stroke-width="1"/>
<line x1="171" y1="560" x2="199" y2="560" stroke="rgb(136,34,85)" stroke-width="1"/>
<line x1="199" y1="560" x2="227" y2="560" stroke="rgb(136,34,85)" stroke-width="1"/>
<line x1="227" y1="560" x2="255" y2="559" stroke="rgb(136,34,85)" stroke-width="1"/>
<line x1="255" y1="559" x2="283" y2="559" stroke="rgb(136,34,85)" stroke-width="1"/>
<line x1="283" y1="559" x2="311" y2="558" stroke="rgb(136,34,85)" stroke-width="1"/>
<line x1="311" y1="558" x2="339" y2="558" stroke="rgb(136,34,85)" stroke-width="1"/>
<line x1="339" y1="558" x2="367" y2="557" stroke="rgb(136,34,85)" stroke-width="1"/>
<line x1="367" y1="557" x2="395" y2="556" stroke="rgb(136,34,85)" stroke-width="1"/>
<line x1="395" y1="556" x2="423" y2="556" stroke="rgb(136,34,85)" stroke-width="1"/>
<line x1="423" y1="556" x2="451" y2="555" stroke="rgb(136,34,85)" stroke-width="1"/>
<line x1="451" y1="555" x2="479" y2="554" stroke="rgb(136,34,85)" stroke-width="1"/>
<line x1="479" y1="554" x2="507" y2="553" stroke="rgb(136,34,85)" stroke-width="1"/>
<line x1="507" y1="553" x2="535" y2="550" stroke="rgb(136,34,85)" stroke-width="1"/>
<line x1="535" y1="550" x2="563" y2="547" stroke="rgb(136,34,85)" stroke-width="1"/>
<line x1="563" y1="547" x2="591" y2="539" stroke="rgb(136,34,85)" stroke-width="1"/>
<line x1="591" y1="539" x2="619" y2="527" stroke="rgb(136,34,85)" stroke-width="1"/>
<line x1="619" y1="527" x2="647" y2="507" stroke="rgb(136,34,85)" stroke-width="1"/>
<line x1="647" y1="507" x2="675" y2="461" stroke="rgb(136,34,85)" stroke-width="1"/>
<line x1="675" y1="461" x2="703" y2="346" stroke="rgb(136,34,85)" stroke-width="1"/>
<line x1="703" y1="346" x2="731" y2="40" stroke="rgb(136,34,85)" stroke-width="1"/>
<line x1="731" y1="40" x2="759" y2="77" stroke="rgb(136,34,85)" stroke-width="1"/>
<rect width="183" height="23" x="607" y="40" style="fill:rgb(255,255,255);stroke:none"/>
<rect width="183" height="23" x="607" y="40" rx="0" ry="0" style="fill:none;stroke-width:1;stroke:rgb(192,192,192)"/>
<text x="610" y="55" fill="rgb(136,34,85)" font-family="Arial" font-size="12" font-weight="bold">Average Quality per read</text>
</svg>
